<svg width="168" height="53" viewBox="0 0 168 53" fill="none" xmlns="http://www.w3.org/2000/svg">
<line y1="-1.5" x2="41" y2="-1.5" transform="matrix(-1 0 0 1 41.293 21)" stroke="white" stroke-width="3"/>
<line y1="-1.5" x2="18.9044" y2="-1.5" transform="matrix(-0.690075 0.723738 0.690075 0.723738 41.293 21)" stroke="white" stroke-width="3"/>
<path d="M85.765 45.52C82.8876 45.52 80.2876 44.792 77.965 43.336C75.677 41.88 73.8743 39.7653 72.557 36.992C71.2396 34.184 70.581 30.7867 70.581 26.8C70.581 22.8133 71.2396 19.4333 72.557 16.66C73.8743 13.852 75.677 11.72 77.965 10.264C80.2876 8.808 82.8876 8.08 85.765 8.08C88.677 8.08 91.277 8.808 93.565 10.264C95.853 11.72 97.6556 13.852 98.973 16.66C100.325 19.4333 101.001 22.8133 101.001 26.8C101.001 30.7867 100.325 34.184 98.973 36.992C97.6556 39.7653 95.853 41.88 93.565 43.336C91.277 44.792 88.677 45.52 85.765 45.52ZM85.765 39.644C87.4636 39.644 88.937 39.1933 90.185 38.292C91.433 37.356 92.4036 35.9347 93.097 34.028C93.825 32.1213 94.189 29.712 94.189 26.8C94.189 23.8533 93.825 21.444 93.097 19.572C92.4036 17.6653 91.433 16.2613 90.185 15.36C88.937 14.424 87.4636 13.956 85.765 13.956C84.1356 13.956 82.6796 14.424 81.397 15.36C80.149 16.2613 79.161 17.6653 78.433 19.572C77.7396 21.444 77.393 23.8533 77.393 26.8C77.393 29.712 77.7396 32.1213 78.433 34.028C79.161 35.9347 80.149 37.356 81.397 38.292C82.6796 39.1933 84.1356 39.644 85.765 39.644Z" fill="white"/>
<path d="M111.393 45V11.2L114.357 14.268H103.697V8.6H118.153V45H111.393Z" fill="#DD0E1E"/>
<path d="M137.376 20.2031L132.041 34.0986H130.643L135.987 20.2031H137.376Z" fill="#6C6C6C"/>
<path d="M149.842 32.68C148.846 32.68 147.946 32.428 147.142 31.924C146.35 31.42 145.726 30.688 145.27 29.728C144.814 28.756 144.586 27.58 144.586 26.2C144.586 24.82 144.814 23.65 145.27 22.69C145.726 21.718 146.35 20.98 147.142 20.476C147.946 19.972 148.846 19.72 149.842 19.72C150.85 19.72 151.75 19.972 152.542 20.476C153.334 20.98 153.958 21.718 154.414 22.69C154.882 23.65 155.116 24.82 155.116 26.2C155.116 27.58 154.882 28.756 154.414 29.728C153.958 30.688 153.334 31.42 152.542 31.924C151.75 32.428 150.85 32.68 149.842 32.68ZM149.842 30.646C150.43 30.646 150.94 30.49 151.372 30.178C151.804 29.854 152.14 29.362 152.38 28.702C152.632 28.042 152.758 27.208 152.758 26.2C152.758 25.18 152.632 24.346 152.38 23.698C152.14 23.038 151.804 22.552 151.372 22.24C150.94 21.916 150.43 21.754 149.842 21.754C149.278 21.754 148.774 21.916 148.33 22.24C147.898 22.552 147.556 23.038 147.304 23.698C147.064 24.346 146.944 25.18 146.944 26.2C146.944 27.208 147.064 28.042 147.304 28.702C147.556 29.362 147.898 29.854 148.33 30.178C148.774 30.49 149.278 30.646 149.842 30.646ZM160.481 32.68C159.593 32.68 158.723 32.554 157.871 32.302C157.031 32.038 156.323 31.678 155.747 31.222L156.755 29.404C157.211 29.776 157.763 30.076 158.411 30.304C159.059 30.532 159.737 30.646 160.445 30.646C161.285 30.646 161.939 30.478 162.407 30.142C162.875 29.794 163.109 29.326 163.109 28.738C163.109 28.162 162.893 27.706 162.461 27.37C162.029 27.034 161.333 26.866 160.373 26.866H159.221V25.264L162.821 20.98L163.127 21.862H156.359V19.9H164.945V21.466L161.345 25.75L160.121 25.03H160.823C162.371 25.03 163.529 25.378 164.297 26.074C165.077 26.758 165.467 27.64 165.467 28.72C165.467 29.428 165.287 30.082 164.927 30.682C164.567 31.282 164.015 31.768 163.271 32.14C162.539 32.5 161.609 32.68 160.481 32.68Z" fill="#4A4A4A"/>
</svg>
