<svg width="74" height="19" viewBox="0 0 74 19" fill="none" xmlns="http://www.w3.org/2000/svg">
<line y1="-1" x2="25" y2="-1" transform="matrix(-1 0 0 1 25 5.29411)" stroke="white" stroke-width="2"/>
<line y1="-1" x2="13.1431" y2="-1" transform="matrix(-0.605228 0.796052 0.605228 0.796052 25 5.29411)" stroke="white" stroke-width="2"/>
<path d="M40.376 15.16C39.4907 15.16 38.6907 14.936 37.976 14.488C37.272 14.04 36.7173 13.3893 36.312 12.536C35.9067 11.672 35.704 10.6267 35.704 9.4C35.704 8.17333 35.9067 7.13333 36.312 6.28C36.7173 5.416 37.272 4.76 37.976 4.312C38.6907 3.864 39.4907 3.64 40.376 3.64C41.272 3.64 42.072 3.864 42.776 4.312C43.48 4.76 44.0347 5.416 44.44 6.28C44.856 7.13333 45.064 8.17333 45.064 9.4C45.064 10.6267 44.856 11.672 44.44 12.536C44.0347 13.3893 43.48 14.04 42.776 14.488C42.072 14.936 41.272 15.16 40.376 15.16ZM40.376 13.352C40.8987 13.352 41.352 13.2133 41.736 12.936C42.12 12.648 42.4187 12.2107 42.632 11.624C42.856 11.0373 42.968 10.296 42.968 9.4C42.968 8.49333 42.856 7.752 42.632 7.176C42.4187 6.58933 42.12 6.15733 41.736 5.88C41.352 5.592 40.8987 5.448 40.376 5.448C39.8747 5.448 39.4267 5.592 39.032 5.88C38.648 6.15733 38.344 6.58933 38.12 7.176C37.9067 7.752 37.8 8.49333 37.8 9.4C37.8 10.296 37.9067 11.0373 38.12 11.624C38.344 12.2107 38.648 12.648 39.032 12.936C39.4267 13.2133 39.8747 13.352 40.376 13.352Z" fill="white"/>
<path d="M48.2616 15V4.6L49.1736 5.544H45.8936V3.8H50.3416V15H48.2616Z" fill="#DD0E1E"/>
<path d="M58.3662 4.54688L54.2168 15.3545H53.1299L57.2861 4.54688H58.3662Z" fill="#6C6C6C"/>
<path d="M63.032 13.62C62.368 13.62 61.768 13.452 61.232 13.116C60.704 12.78 60.288 12.292 59.984 11.652C59.68 11.004 59.528 10.22 59.528 9.3C59.528 8.38 59.68 7.6 59.984 6.96C60.288 6.312 60.704 5.82 61.232 5.484C61.768 5.148 62.368 4.98 63.032 4.98C63.704 4.98 64.304 5.148 64.832 5.484C65.36 5.82 65.776 6.312 66.08 6.96C66.392 7.6 66.548 8.38 66.548 9.3C66.548 10.22 66.392 11.004 66.08 11.652C65.776 12.292 65.36 12.78 64.832 13.116C64.304 13.452 63.704 13.62 63.032 13.62ZM63.032 12.264C63.424 12.264 63.764 12.16 64.052 11.952C64.34 11.736 64.564 11.408 64.724 10.968C64.892 10.528 64.976 9.972 64.976 9.3C64.976 8.62 64.892 8.064 64.724 7.632C64.564 7.192 64.34 6.868 64.052 6.66C63.764 6.444 63.424 6.336 63.032 6.336C62.656 6.336 62.32 6.444 62.024 6.66C61.736 6.868 61.508 7.192 61.34 7.632C61.18 8.064 61.1 8.62 61.1 9.3C61.1 9.972 61.18 10.528 61.34 10.968C61.508 11.408 61.736 11.736 62.024 11.952C62.32 12.16 62.656 12.264 63.032 12.264ZM70.125 13.62C69.533 13.62 68.953 13.536 68.385 13.368C67.825 13.192 67.353 12.952 66.969 12.648L67.641 11.436C67.945 11.684 68.313 11.884 68.745 12.036C69.177 12.188 69.629 12.264 70.101 12.264C70.661 12.264 71.097 12.152 71.409 11.928C71.721 11.696 71.877 11.384 71.877 10.992C71.877 10.608 71.733 10.304 71.445 10.08C71.157 9.856 70.693 9.744 70.053 9.744H69.285V8.676L71.685 5.82L71.889 6.408H67.377V5.1H73.101V6.144L70.701 9L69.885 8.52H70.353C71.385 8.52 72.157 8.752 72.669 9.216C73.189 9.672 73.449 10.26 73.449 10.98C73.449 11.452 73.329 11.888 73.089 12.288C72.849 12.688 72.481 13.012 71.985 13.26C71.497 13.5 70.877 13.62 70.125 13.62Z" fill="#4A4A4A"/>
</svg>
