<svg width="64" height="64" viewBox="0 0 64 64" fill="none" xmlns="http://www.w3.org/2000/svg">
<path d="M62 16.4828V53.7242C62 58.2949 58.2949 62 53.7241 62H10.2759C5.70523 62 2 58.2949 2 53.7242V10.2759" stroke="#F50C1E" stroke-width="3" stroke-linecap="round" stroke-linejoin="round"/>
<path d="M50.6206 36.1378C50.6206 37.2803 49.6941 38.2068 48.5516 38.2068C47.4091 38.2068 46.4827 37.2803 46.4827 36.1378C46.4827 34.9953 47.4091 34.0688 48.5516 34.0688C49.6941 34.0688 50.6206 34.9953 50.6206 36.1378Z" stroke="#F50C1E" stroke-width="3" stroke-linecap="round" stroke-linejoin="round"/>
<path d="M53.7241 16.4828H62M53.7241 16.4828H9.24138C5.24207 16.4828 2 13.2407 2 9.24138C2 5.24207 5.24207 2 9.24138 2H45.4483C50.019 2 53.7241 5.70523 53.7241 10.2759V16.4828Z" stroke="#F50C1E" stroke-width="3" stroke-linecap="round" stroke-linejoin="round"/>
<path d="M20.4138 38.9397C18.9938 38.9397 17.8438 38.4197 16.9638 37.3797C16.1038 36.3197 15.6738 34.9397 15.6738 33.2397C15.6738 31.5397 16.1038 30.1697 16.9638 29.1297C17.8438 28.0697 18.9938 27.5397 20.4138 27.5397C21.8138 27.5397 22.9538 28.0597 23.8338 29.0997C24.7138 30.1397 25.1538 31.5197 25.1538 33.2397C25.1538 34.9597 24.7138 36.3397 23.8338 37.3797C22.9538 38.4197 21.8138 38.9397 20.4138 38.9397ZM33.1338 27.6897H34.9038L20.5638 48.6897H18.7938L33.1338 27.6897ZM20.4138 37.5897C21.3938 37.5897 22.1738 37.2097 22.7538 36.4497C23.3538 35.6697 23.6538 34.5997 23.6538 33.2397C23.6538 31.8797 23.3538 30.8197 22.7538 30.0597C22.1738 29.2797 21.3938 28.8897 20.4138 28.8897C19.4138 28.8897 18.6238 29.2797 18.0438 30.0597C17.4638 30.8397 17.1738 31.8997 17.1738 33.2397C17.1738 34.5797 17.4638 35.6397 18.0438 36.4197C18.6238 37.1997 19.4138 37.5897 20.4138 37.5897ZM33.2838 48.8397C31.8838 48.8397 30.7438 48.3197 29.8638 47.2797C28.9838 46.2197 28.5438 44.8397 28.5438 43.1397C28.5438 41.4397 28.9838 40.0697 29.8638 39.0297C30.7438 37.9697 31.8838 37.4397 33.2838 37.4397C34.7038 37.4397 35.8438 37.9697 36.7038 39.0297C37.5838 40.0697 38.0238 41.4397 38.0238 43.1397C38.0238 44.8397 37.5838 46.2197 36.7038 47.2797C35.8438 48.3197 34.7038 48.8397 33.2838 48.8397ZM33.2838 47.4897C34.2838 47.4897 35.0738 47.0997 35.6538 46.3197C36.2338 45.5397 36.5238 44.4797 36.5238 43.1397C36.5238 41.7997 36.2338 40.7397 35.6538 39.9597C35.0738 39.1797 34.2838 38.7897 33.2838 38.7897C32.3038 38.7897 31.5138 39.1797 30.9138 39.9597C30.3338 40.7197 30.0438 41.7797 30.0438 43.1397C30.0438 44.4997 30.3338 45.5697 30.9138 46.3497C31.5138 47.1097 32.3038 47.4897 33.2838 47.4897Z" fill="#F50C1E"/>
<path d="M16.9638 37.3797L16.1872 38.0097L16.1937 38.0178L16.2004 38.0256L16.9638 37.3797ZM16.9638 29.1297L16.1944 28.4909L16.1931 28.4924L16.9638 29.1297ZM23.8338 29.0997L24.5972 28.4538V28.4538L23.8338 29.0997ZM23.8338 37.3797L24.5972 38.0256L23.8338 37.3797ZM33.1338 27.6897V26.6897H32.6057L32.3079 27.1258L33.1338 27.6897ZM34.9038 27.6897L35.7296 28.2536L36.7975 26.6897H34.9038V27.6897ZM20.5638 48.6897V49.6897H21.0918L21.3896 49.2536L20.5638 48.6897ZM18.7938 48.6897L17.9679 48.1258L16.9 49.6897H18.7938V48.6897ZM22.7538 36.4497L21.9611 35.84L21.9588 35.843L22.7538 36.4497ZM22.7538 30.0597L21.9513 30.6564L21.9599 30.668L21.9689 30.6793L22.7538 30.0597ZM18.0438 30.0597L17.2413 29.463L17.2413 29.463L18.0438 30.0597ZM29.8638 47.2797L29.0943 47.9185L29.1004 47.9256L29.8638 47.2797ZM29.8638 39.0297L30.6272 39.6757L30.6332 39.6685L29.8638 39.0297ZM36.7038 39.0297L35.9272 39.6597L35.9337 39.6678L35.9404 39.6756L36.7038 39.0297ZM36.7038 47.2797L35.9344 46.6409L35.9331 46.6424L36.7038 47.2797ZM35.6538 46.3197L34.8513 45.723L35.6538 46.3197ZM35.6538 39.9597L34.8513 40.5564L35.6538 39.9597ZM30.9138 39.9597L30.1211 39.35L30.1188 39.353L30.9138 39.9597ZM30.9138 46.3497L30.1113 46.9464L30.1199 46.958L30.1289 46.9693L30.9138 46.3497ZM20.4138 37.9397C19.2737 37.9397 18.4081 37.5385 17.7272 36.7338L16.2004 38.0256C17.2794 39.3009 18.7139 39.9397 20.4138 39.9397V37.9397ZM17.7403 36.7497C17.0575 35.908 16.6738 34.7681 16.6738 33.2397H14.6738C14.6738 35.1113 15.15 36.7313 16.1872 38.0097L17.7403 36.7497ZM16.6738 33.2397C16.6738 31.7104 17.0578 30.5851 17.7344 29.767L16.1931 28.4924C15.1497 29.7543 14.6738 31.369 14.6738 33.2397H16.6738ZM17.7332 29.7685C18.4166 28.9453 19.2807 28.5397 20.4138 28.5397V26.5397C18.7069 26.5397 17.271 27.1941 16.1944 28.4909L17.7332 29.7685ZM20.4138 28.5397C21.529 28.5397 22.3864 28.9372 23.0704 29.7456L24.5972 28.4538C23.5212 27.1822 22.0986 26.5397 20.4138 26.5397V28.5397ZM23.0704 29.7456C23.7609 30.5617 24.1538 31.6924 24.1538 33.2397H26.1538C26.1538 31.347 25.6666 29.7177 24.5972 28.4538L23.0704 29.7456ZM24.1538 33.2397C24.1538 34.787 23.7609 35.9177 23.0704 36.7338L24.5972 38.0256C25.6666 36.7617 26.1538 35.1324 26.1538 33.2397H24.1538ZM23.0704 36.7338C22.3864 37.5422 21.529 37.9397 20.4138 37.9397V39.9397C22.0986 39.9397 23.5212 39.2972 24.5972 38.0256L23.0704 36.7338ZM33.1338 28.6897H34.9038V26.6897H33.1338V28.6897ZM34.0779 27.1258L19.7379 48.1258L21.3896 49.2536L35.7296 28.2536L34.0779 27.1258ZM20.5638 47.6897H18.7938V49.6897H20.5638V47.6897ZM19.6196 49.2536L33.9596 28.2536L32.3079 27.1258L17.9679 48.1258L19.6196 49.2536ZM20.4138 38.5897C21.6964 38.5897 22.7741 38.0714 23.5487 37.0564L21.9588 35.843C21.5735 36.3479 21.0911 36.5897 20.4138 36.5897V38.5897ZM23.5464 37.0594C24.3239 36.0487 24.6538 34.7374 24.6538 33.2397H22.6538C22.6538 34.462 22.3837 35.2907 21.9612 35.84L23.5464 37.0594ZM24.6538 33.2397C24.6538 31.744 24.3247 30.4357 23.5387 29.4401L21.9689 30.6793C22.3829 31.2037 22.6538 32.0153 22.6538 33.2397H24.6538ZM23.5562 29.463C22.7857 28.4268 21.7069 27.8897 20.4138 27.8897V29.8897C21.0806 29.8897 21.5618 30.1326 21.9513 30.6564L23.5562 29.463ZM20.4138 27.8897C19.1083 27.8897 18.0163 28.4208 17.2413 29.463L18.8462 30.6564C19.2313 30.1386 19.7193 29.8897 20.4138 29.8897V27.8897ZM17.2413 29.463C16.4925 30.4701 16.1738 31.7645 16.1738 33.2397H18.1738C18.1738 32.0349 18.4351 31.2093 18.8462 30.6564L17.2413 29.463ZM16.1738 33.2397C16.1738 34.7149 16.4925 36.0093 17.2413 37.0164L18.8462 35.823C18.4351 35.2701 18.1738 34.4445 18.1738 33.2397H16.1738ZM17.2413 37.0164C18.0163 38.0586 19.1083 38.5897 20.4138 38.5897V36.5897C19.7193 36.5897 19.2313 36.3408 18.8462 35.823L17.2413 37.0164ZM33.2838 47.8397C32.1686 47.8397 31.3112 47.4422 30.6272 46.6338L29.1004 47.9256C30.1764 49.1972 31.599 49.8397 33.2838 49.8397V47.8397ZM30.6332 46.6409C29.9346 45.7995 29.5438 44.6628 29.5438 43.1397H27.5438C27.5438 45.0166 28.0329 46.6399 29.0944 47.9185L30.6332 46.6409ZM29.5438 43.1397C29.5438 41.6158 29.9349 40.4937 30.6272 39.6756L29.1004 38.3838C28.0326 39.6456 27.5438 41.2636 27.5438 43.1397H29.5438ZM30.6332 39.6685C31.3197 38.8416 32.1756 38.4397 33.2838 38.4397V36.4397C31.5919 36.4397 30.1679 37.0978 29.0944 38.3909L30.6332 39.6685ZM33.2838 38.4397C34.4164 38.4397 35.2658 38.8445 35.9272 39.6597L37.4803 38.3997C36.4218 37.0949 34.9911 36.4397 33.2838 36.4397V38.4397ZM35.9404 39.6756C36.6326 40.4937 37.0238 41.6158 37.0238 43.1397H39.0238C39.0238 41.2636 38.5349 39.6456 37.4672 38.3838L35.9404 39.6756ZM37.0238 43.1397C37.0238 44.6628 36.6329 45.7995 35.9344 46.6409L37.4732 47.9185C38.5346 46.6399 39.0238 45.0166 39.0238 43.1397H37.0238ZM35.9331 46.6424C35.2742 47.4393 34.4235 47.8397 33.2838 47.8397V49.8397C34.984 49.8397 36.4133 49.2001 37.4744 47.917L35.9331 46.6424ZM33.2838 48.4897C34.5893 48.4897 35.6813 47.9586 36.4562 46.9164L34.8513 45.723C34.4663 46.2408 33.9783 46.4897 33.2838 46.4897V48.4897ZM36.4562 46.9164C37.2051 45.9093 37.5238 44.6149 37.5238 43.1397H35.5238C35.5238 44.3445 35.2625 45.1701 34.8513 45.723L36.4562 46.9164ZM37.5238 43.1397C37.5238 41.6645 37.2051 40.3701 36.4562 39.363L34.8513 40.5564C35.2625 41.1093 35.5238 41.9349 35.5238 43.1397H37.5238ZM36.4562 39.363C35.6813 38.3208 34.5893 37.7897 33.2838 37.7897V39.7897C33.9783 39.7897 34.4663 40.0386 34.8513 40.5564L36.4562 39.363ZM33.2838 37.7897C31.9918 37.7897 30.9095 38.3251 30.1212 39.35L31.7064 40.5694C32.118 40.0343 32.6158 39.7897 33.2838 39.7897V37.7897ZM30.1188 39.353C29.36 40.3474 29.0438 41.6505 29.0438 43.1397H31.0438C31.0438 41.9089 31.3076 41.092 31.7087 40.5664L30.1188 39.353ZM29.0438 43.1397C29.0438 44.631 29.3608 45.9371 30.1113 46.9464L31.7162 45.753C31.3068 45.2023 31.0438 44.3684 31.0438 43.1397H29.0438ZM30.1289 46.9693C30.9212 47.9729 32.0021 48.4897 33.2838 48.4897V46.4897C32.6055 46.4897 32.1064 46.2465 31.6987 45.7301L30.1289 46.9693Z" fill="#F50C1E"/>
</svg>
