<svg width="64" height="64" viewBox="0 0 64 64" fill="none" xmlns="http://www.w3.org/2000/svg">
<path d="M12.6452 4.92676H5.87097C4.84432 4.92676 3.85973 5.23512 3.13378 5.78401C2.40783 6.33289 2 7.07734 2 7.85359V59.0731C2 59.8493 2.40783 60.5938 3.13378 61.1427C3.85973 61.6916 4.84432 61.9999 5.87097 61.9999H58.129C59.1557 61.9999 60.1403 61.6916 60.8662 61.1427C61.5922 60.5938 62 59.8493 62 59.0731V7.85359C62 7.07734 61.5922 6.33289 60.8662 5.78401C60.1403 5.23512 59.1557 4.92676 58.129 4.92676H32" stroke="#F50C1E" stroke-width="3" stroke-linecap="round" stroke-linejoin="round"/>
<path d="M12.6451 43.7073H51.3548M8.77417 4.92683L11.5109 2.85756C12.2367 2.30864 13.2212 2.00017 14.2477 2H30.0645C30.5778 2 31.0701 2.15418 31.4331 2.42862C31.7961 2.70307 32 3.07529 32 3.46341V40.0488L22.3226 32.7317L12.6451 40.0488V4.92683H8.77417ZM12.6451 53.9512H51.3548H12.6451ZM32 12.9756H51.3548H32ZM32 23.2195H51.3548H32ZM32 33.4634H51.3548H32Z" stroke="#F50C1E" stroke-width="3" stroke-linecap="round" stroke-linejoin="round"/>
</svg>
