<svg width="26" height="26" viewBox="0 0 26 26" fill="none" xmlns="http://www.w3.org/2000/svg">
<path fill-rule="evenodd" clip-rule="evenodd" d="M7.5425 0.243748C8.911 0.180748 9.34733 0.166748 12.8333 0.166748C16.3193 0.166748 16.7557 0.181915 18.123 0.243748C19.4903 0.305581 20.4237 0.523748 21.2403 0.839915C22.0955 1.16308 22.8713 1.66825 23.513 2.32158C24.1663 2.96208 24.6703 3.73675 24.9923 4.59308C25.3097 5.40975 25.5267 6.34308 25.5897 7.70808C25.6527 9.07891 25.6667 9.51525 25.6667 13.0001C25.6667 16.4861 25.6515 16.9224 25.5897 18.2909C25.5278 19.6559 25.3097 20.5892 24.9923 21.4059C24.6703 22.2624 24.1655 23.0383 23.513 23.6797C22.8713 24.3331 22.0955 24.8371 21.2403 25.1591C20.4237 25.4764 19.4903 25.6934 18.1253 25.7564C16.7557 25.8194 16.3193 25.8334 12.8333 25.8334C9.34733 25.8334 8.911 25.8182 7.5425 25.7564C6.1775 25.6946 5.24417 25.4764 4.4275 25.1591C3.57107 24.837 2.79512 24.3322 2.15367 23.6797C1.50078 23.0389 0.995534 22.2633 0.673167 21.4071C0.357 20.5904 0.14 19.6571 0.077 18.2921C0.014 16.9212 0 16.4849 0 13.0001C0 9.51408 0.0151666 9.07775 0.077 7.71041C0.138833 6.34308 0.357 5.40975 0.673167 4.59308C0.99601 3.73684 1.50164 2.96128 2.15483 2.32041C2.79538 1.66767 3.57055 1.16243 4.42633 0.839915C5.243 0.523748 6.17633 0.306748 7.54133 0.243748H7.5425ZM18.0192 2.55375C16.6658 2.49191 16.2598 2.47908 12.8333 2.47908C9.40683 2.47908 9.00083 2.49191 7.6475 2.55375C6.39567 2.61091 5.71667 2.81975 5.264 2.99591C4.6655 3.22925 4.23733 3.50575 3.78817 3.95491C3.36239 4.36914 3.03471 4.87341 2.82917 5.43075C2.653 5.88341 2.44417 6.56241 2.387 7.81425C2.32517 9.16758 2.31233 9.57358 2.31233 13.0001C2.31233 16.4266 2.32517 16.8326 2.387 18.1859C2.44417 19.4377 2.653 20.1167 2.82917 20.5694C3.0345 21.1259 3.36233 21.6311 3.78817 22.0452C4.20233 22.4711 4.7075 22.7989 5.264 23.0042C5.71667 23.1804 6.39567 23.3892 7.6475 23.4464C9.00083 23.5082 9.40567 23.5211 12.8333 23.5211C16.261 23.5211 16.6658 23.5082 18.0192 23.4464C19.271 23.3892 19.95 23.1804 20.4027 23.0042C21.0012 22.7709 21.4293 22.4944 21.8785 22.0452C22.3043 21.6311 22.6322 21.1259 22.8375 20.5694C23.0137 20.1167 23.2225 19.4377 23.2797 18.1859C23.3415 16.8326 23.3543 16.4266 23.3543 13.0001C23.3543 9.57358 23.3415 9.16758 23.2797 7.81425C23.2225 6.56241 23.0137 5.88341 22.8375 5.43075C22.6042 4.83225 22.3277 4.40408 21.8785 3.95491C21.4642 3.52916 20.96 3.20149 20.4027 2.99591C19.95 2.81975 19.271 2.61091 18.0192 2.55375ZM11.1942 16.9562C12.1096 17.3373 13.1289 17.3887 14.0781 17.1018C15.0272 16.8148 15.8473 16.2071 16.3982 15.3827C16.9491 14.5582 17.1967 13.5681 17.0987 12.5814C17.0007 11.5946 16.5632 10.6725 15.8608 9.97258C15.4131 9.52514 14.8717 9.18253 14.2757 8.96942C13.6797 8.75631 13.0438 8.678 12.4139 8.74013C11.784 8.80226 11.1757 9.00329 10.6328 9.32873C10.0899 9.65418 9.62587 10.0959 9.27419 10.6222C8.9225 11.1485 8.69189 11.7463 8.59894 12.3724C8.50598 12.9985 8.55301 13.6374 8.73663 14.2432C8.92025 14.8489 9.23589 15.4065 9.66084 15.8756C10.0858 16.3447 10.6095 16.7138 11.1942 16.9562ZM8.169 8.33575C8.78153 7.72322 9.50871 7.23733 10.309 6.90584C11.1093 6.57434 11.9671 6.40372 12.8333 6.40372C13.6996 6.40372 14.5573 6.57434 15.3577 6.90584C16.158 7.23733 16.8851 7.72322 17.4977 8.33575C18.1102 8.94828 18.5961 9.67545 18.9276 10.4758C19.2591 11.2761 19.4297 12.1338 19.4297 13.0001C19.4297 13.8663 19.2591 14.7241 18.9276 15.5244C18.5961 16.3247 18.1102 17.0519 17.4977 17.6644C16.2606 18.9015 14.5828 19.5964 12.8333 19.5964C11.0839 19.5964 9.40606 18.9015 8.169 17.6644C6.93194 16.4274 6.23697 14.7495 6.23697 13.0001C6.23697 11.2506 6.93194 9.57281 8.169 8.33575ZM20.8927 7.38608C21.0445 7.2429 21.166 7.07071 21.25 6.87972C21.3341 6.68873 21.3789 6.48281 21.382 6.27417C21.385 6.06552 21.3462 5.85839 21.2677 5.66503C21.1893 5.47167 21.0728 5.29601 20.9253 5.14846C20.7777 5.00091 20.6021 4.88446 20.4087 4.80602C20.2154 4.72757 20.0082 4.68872 19.7996 4.69176C19.5909 4.6948 19.385 4.73968 19.194 4.82373C19.003 4.90778 18.8309 5.02929 18.6877 5.18108C18.4092 5.47628 18.2567 5.86839 18.2627 6.27417C18.2686 6.67994 18.4324 7.06744 18.7193 7.3544C19.0063 7.64136 19.3938 7.80518 19.7996 7.8111C20.2054 7.81701 20.5975 7.66455 20.8927 7.38608Z" fill="#F8F8F8"/>
</svg>
