<svg width="28" height="29" viewBox="0 0 28 29" fill="none" xmlns="http://www.w3.org/2000/svg">
<path d="M15.0097 19.051L18.4776 23L15 26.949L16.3756 28.5L21.2191 23L16.3756 17.5L15.0097 19.051ZM21.7906 19.051L25.2586 23L21.7809 26.949L23.1565 28.5L28 23L23.1565 17.5L21.7906 19.051Z" fill="#F8F8F8"/>
<path d="M12 21.2H2V3.8465L13.43 12.943C13.5974 13.0765 13.7963 13.1481 14 13.1481C14.2037 13.1481 14.4026 13.0765 14.57 12.943L26 3.8465V14.3H28V2.8C28 2.19 27.7893 1.60499 27.4142 1.17365C27.0391 0.742321 26.5304 0.5 26 0.5H2C1.46957 0.5 0.960859 0.742321 0.585786 1.17365C0.210714 1.60499 0 2.19 0 2.8V21.2C0 21.81 0.210714 22.395 0.585786 22.8263C0.960859 23.2577 1.46957 23.5 2 23.5H12V21.2ZM23.8 2.8L14 10.597L4.2 2.8H23.8Z" fill="#F8F8F8"/>
</svg>
