<svg width="24" height="25" viewBox="0 0 24 25" fill="none" xmlns="http://www.w3.org/2000/svg">
<path d="M13.1667 8.33333C14.0949 8.33333 14.9852 8.70208 15.6415 9.35846C16.2979 10.0148 16.6667 10.9051 16.6667 11.8333C16.6667 12.1428 16.7896 12.4395 17.0084 12.6583C17.2272 12.8771 17.5239 13 17.8333 13C18.1428 13 18.4395 12.8771 18.6583 12.6583C18.8771 12.4395 19 12.1428 19 11.8333C19 10.2862 18.3854 8.80251 17.2915 7.70854C16.1975 6.61458 14.7138 6 13.1667 6C12.8572 6 12.5605 6.12292 12.3417 6.34171C12.1229 6.5605 12 6.85725 12 7.16667C12 7.47609 12.1229 7.77283 12.3417 7.99162C12.5605 8.21042 12.8572 8.33333 13.1667 8.33333Z" fill="#F8F8F8"/>
<path d="M13.1668 3.66683C15.3328 3.66683 17.41 4.52724 18.9415 6.05879C20.4731 7.59034 21.3335 9.66756 21.3335 11.8335C21.3335 12.1429 21.4564 12.4397 21.6752 12.6585C21.894 12.8772 22.1907 13.0002 22.5002 13.0002C22.8096 13.0002 23.1063 12.8772 23.3251 12.6585C23.5439 12.4397 23.6668 12.1429 23.6668 11.8335C23.6668 9.04872 22.5606 6.37801 20.5914 4.40887C18.6223 2.43974 15.9516 1.3335 13.1668 1.3335C12.8574 1.3335 12.5607 1.45641 12.3419 1.6752C12.1231 1.894 12.0002 2.19074 12.0002 2.50016C12.0002 2.80958 12.1231 3.10633 12.3419 3.32512C12.5607 3.54391 12.8574 3.66683 13.1668 3.66683ZM23.3752 17.5618C23.311 17.3745 23.2002 17.2067 23.0533 17.074C22.9063 16.9413 22.728 16.8482 22.5352 16.8035L15.5352 15.2052C15.3452 15.1621 15.1474 15.1673 14.9599 15.2203C14.7724 15.2732 14.6012 15.3723 14.4618 15.5085C14.2985 15.6602 14.2868 15.6718 13.5285 17.1185C11.0122 15.959 8.99599 13.9345 7.84683 11.4135C9.3285 10.6668 9.34016 10.6668 9.49183 10.4918C9.62799 10.3525 9.72709 10.1812 9.78007 9.99376C9.83306 9.80627 9.83824 9.6085 9.79516 9.4185L8.19683 2.50016C8.15208 2.30731 8.059 2.12901 7.92633 1.98206C7.79367 1.83511 7.62579 1.72433 7.4385 1.66016C7.16604 1.56285 6.88469 1.49251 6.5985 1.45016C6.30362 1.38179 6.00272 1.34271 5.70016 1.3335C4.27683 1.3335 2.9118 1.89891 1.90536 2.90536C0.898911 3.9118 0.333496 5.27683 0.333496 6.70016C0.33967 11.4633 2.23456 16.0296 5.60263 19.3977C8.9707 22.7658 13.537 24.6607 18.3002 24.6668C19.0049 24.6668 19.7028 24.528 20.3539 24.2583C21.005 23.9886 21.5966 23.5933 22.095 23.095C22.5933 22.5966 22.9886 22.005 23.2583 21.3539C23.528 20.7028 23.6668 20.0049 23.6668 19.3002C23.6672 19.0032 23.6438 18.7067 23.5968 18.4135C23.5478 18.1237 23.4736 17.8387 23.3752 17.5618ZM18.3002 22.3335C14.1549 22.3304 10.1803 20.6823 7.24914 17.7512C4.31799 14.82 2.66992 10.8454 2.66683 6.70016C2.6699 5.89662 2.99047 5.12686 3.55867 4.55867C4.12686 3.99047 4.89662 3.6699 5.70016 3.66683H6.08516L7.3335 9.08016L6.7035 9.40683C5.70016 9.93183 4.90683 10.3518 5.32683 11.2618C6.01076 13.198 7.1174 14.9575 8.56635 16.4125C10.0153 17.8675 11.7702 18.9815 13.7035 19.6735C14.6835 20.0702 15.0685 19.3352 15.5935 18.3202L15.9318 17.6785L21.3335 18.9152V19.3002C21.3304 20.1037 21.0099 20.8735 20.4417 21.4417C19.8735 22.0099 19.1037 22.3304 18.3002 22.3335Z" fill="#F8F8F8"/>
</svg>
