<svg width="22" height="27" viewBox="0 0 22 27" fill="none" xmlns="http://www.w3.org/2000/svg">
<path d="M18.4247 18.7581L11 26.1827L3.57534 18.7581C2.1069 17.2896 1.10688 15.4187 0.70175 13.3819C0.296615 11.3451 0.504558 9.23391 1.29928 7.31529C2.09401 5.39667 3.43982 3.75681 5.16653 2.60306C6.89324 1.44931 8.92331 0.833496 11 0.833496C13.0767 0.833496 15.1068 1.44931 16.8335 2.60306C18.5602 3.75681 19.906 5.39667 20.7007 7.31529C21.4955 9.23391 21.7034 11.3451 21.2983 13.3819C20.8931 15.4187 19.8931 17.2896 18.4247 18.7581ZM11 16.0001C12.2377 16.0001 13.4247 15.5084 14.2998 14.6332C15.175 13.7581 15.6667 12.5711 15.6667 11.3334C15.6667 10.0957 15.175 8.90874 14.2998 8.03357C13.4247 7.1584 12.2377 6.66674 11 6.66674C9.76233 6.66674 8.57534 7.1584 7.70017 8.03357C6.825 8.90874 6.33334 10.0957 6.33334 11.3334C6.33334 12.5711 6.825 13.7581 7.70017 14.6332C8.57534 15.5084 9.76233 16.0001 11 16.0001ZM11 13.6667C10.3812 13.6667 9.78767 13.4209 9.35009 12.9833C8.9125 12.5457 8.66667 11.9522 8.66667 11.3334C8.66667 10.7146 8.9125 10.1211 9.35009 9.68349C9.78767 9.2459 10.3812 9.00007 11 9.00007C11.6188 9.00007 12.2123 9.2459 12.6499 9.68349C13.0875 10.1211 13.3333 10.7146 13.3333 11.3334C13.3333 11.9522 13.0875 12.5457 12.6499 12.9833C12.2123 13.4209 11.6188 13.6667 11 13.6667Z" fill="white"/>
</svg>
