<svg width="60" height="60" viewBox="0 0 60 60" fill="none" xmlns="http://www.w3.org/2000/svg">
<mask id="path-1-inside-1_254_502" fill="white">
<path d="M53.2173 2.57875C53.3234 2.47253 53.4023 2.34245 53.4475 2.19947C53.4926 2.05649 53.5026 1.90479 53.4767 1.75715C53.4508 1.6095 53.3896 1.47023 53.2984 1.35105C53.2072 1.23188 53.0887 1.13629 52.9527 1.07234C50.8554 0.0848529 48.5029 -0.231054 46.2183 0.168009C43.9336 0.567073 41.829 1.66153 40.1933 3.30108C37.0063 6.49915 35.8932 11.5218 37.3798 15.721L15.7218 37.3141C14.5186 36.8912 13.2513 36.6785 11.9755 36.6853C8.75842 36.6853 5.63896 37.9615 3.41855 40.1884C1.78865 41.8064 0.687008 43.8776 0.257974 46.1306C-0.171059 48.3835 0.0925271 50.7131 1.01419 52.8142C1.07461 52.9548 1.16883 53.0785 1.28853 53.1742C1.40824 53.27 1.54975 53.3348 1.70057 53.3631C1.85138 53.3914 2.00687 53.3823 2.15329 53.3365C2.29972 53.2907 2.43258 53.2096 2.54014 53.1005L9.09251 46.534C9.52421 46.0999 10.2206 46.0419 10.5809 46.4068L13.4095 49.3578C13.8205 49.7714 13.8017 50.4095 13.3682 50.8455L6.84019 57.3951C6.7341 57.5012 6.65515 57.6311 6.61 57.7739C6.56485 57.9168 6.55483 58.0684 6.58078 58.2159C6.60673 58.3634 6.66789 58.5026 6.7591 58.6216C6.85031 58.7406 6.96889 58.8359 7.10484 58.8997C8.62376 59.6221 10.2851 59.998 11.968 60C14.9185 60 17.7208 58.8173 19.8642 56.6691C23.0513 53.4729 24.1643 48.4503 22.6759 44.251L44.3338 22.6561C45.5377 23.0788 46.8057 23.2915 48.082 23.2848C51.2991 23.2848 54.4186 22.0086 56.639 19.7817C58.2689 18.1637 59.3705 16.0925 59.7996 13.8396C60.2286 11.5866 59.965 9.25701 59.0433 7.15598C58.9829 7.01533 58.8887 6.89167 58.769 6.79593C58.6493 6.70018 58.5078 6.6353 58.357 6.607C58.2061 6.5787 58.0507 6.58786 57.9042 6.63368C57.7578 6.67949 57.625 6.76054 57.5174 6.86967L50.965 13.4361C50.7626 13.6312 50.491 13.7387 50.2094 13.7352C49.9279 13.7317 49.6591 13.6175 49.4616 13.4174L46.6481 10.6123C46.5477 10.5162 46.4678 10.4009 46.4132 10.2734C46.3585 10.1458 46.3303 10.0085 46.3301 9.86979C46.3299 9.73106 46.3578 9.59372 46.4121 9.466C46.4665 9.33828 46.5461 9.2228 46.6462 9.12648L53.2173 2.57875ZM45.3192 11.9353L48.1327 14.7404C49.257 15.8669 51.1827 15.8726 52.2958 14.7573L57.7952 9.24811C58.2308 10.8668 58.2304 12.5714 57.7941 14.1898C57.3578 15.8083 56.501 17.2834 55.3101 18.4662C53.4388 20.3431 50.8074 21.4173 48.0839 21.4173C46.802 21.4173 45.5876 21.1777 44.4746 20.7062C44.3025 20.6331 44.1125 20.613 43.929 20.6483C43.7454 20.6837 43.5765 20.7729 43.4441 20.9045L20.9209 43.3603C20.7891 43.4916 20.6996 43.6592 20.6638 43.8415C20.628 44.0239 20.6476 44.2127 20.7201 44.3839C22.2273 47.9581 21.3095 52.5709 18.5372 55.3517C17.3427 56.5597 15.8388 57.4179 14.1891 57.833C12.5394 58.248 10.8071 58.204 9.18073 57.7058L14.7008 52.1667C15.8664 50.9971 15.8851 49.1838 14.7552 48.0535L11.9286 45.1025C10.8381 44.0078 8.89919 44.0751 7.76552 45.2185L2.26611 50.7276C1.83049 49.109 1.83086 47.4044 2.26718 45.7859C2.70349 44.1674 3.56032 42.6924 4.75117 41.5096C6.62247 39.6326 9.25393 38.5585 11.9774 38.5585C13.2593 38.5585 14.4737 38.798 15.5867 39.2696C15.7586 39.3431 15.9488 39.3636 16.1325 39.3282C16.3162 39.2928 16.485 39.2033 16.6171 39.0712L39.1403 16.6155C39.2722 16.4841 39.3617 16.3166 39.3975 16.1342C39.4332 15.9519 39.4136 15.763 39.3412 15.5919C37.834 12.0177 38.7518 7.403 41.524 4.62223C42.7181 3.41541 44.2211 2.55791 45.8697 2.14288C47.5182 1.72786 49.2493 1.77117 50.8749 2.26811L45.3192 7.80907C45.0445 8.07833 44.8263 8.39943 44.6773 8.75365C44.5284 9.10787 44.4517 9.48811 44.4517 9.87219C44.4517 10.2563 44.5284 10.6365 44.6773 10.9907C44.8263 11.345 45.0445 11.6661 45.3192 11.9353Z"/>
</mask>
<path d="M52.9527 1.07234L51.6747 3.78654L51.6759 3.78709L52.9527 1.07234ZM40.1933 3.30108L38.0695 1.18227L38.0683 1.18343L40.1933 3.30108ZM37.3798 15.721L39.4979 17.8455L40.8404 16.507L40.2078 14.7199L37.3798 15.721ZM15.7218 37.3141L14.7271 40.1443L16.5052 40.7693L17.84 39.4386L15.7218 37.3141ZM11.9755 36.6853V39.6853H11.9835L11.9916 39.6853L11.9755 36.6853ZM3.41855 40.1884L5.5321 42.3175L5.53754 42.3121L5.54294 42.3066L3.41855 40.1884ZM1.01419 52.8142L3.77068 51.6302L3.76612 51.6196L3.76148 51.609L1.01419 52.8142ZM2.54014 53.1005L0.416548 50.9814L0.409992 50.988L0.403477 50.9946L2.54014 53.1005ZM9.09251 46.534L11.2161 48.6531L11.2198 48.6493L9.09251 46.534ZM10.5809 46.4068L12.7467 44.3309L12.7312 44.3147L12.7155 44.2988L10.5809 46.4068ZM13.4095 49.3578L11.2437 51.4337L11.2625 51.4534L11.2817 51.4727L13.4095 49.3578ZM13.3682 50.8455L15.493 52.9633L15.4954 52.9609L13.3682 50.8455ZM6.84019 57.3951L8.96098 59.517L8.96502 59.5129L6.84019 57.3951ZM7.10484 58.8997L8.39343 56.1905L8.38571 56.1868L8.37797 56.1832L7.10484 58.8997ZM11.968 60L11.9644 63H11.968V60ZM19.8642 56.6691L21.9879 58.788L21.9886 58.7873L19.8642 56.6691ZM22.6759 44.251L20.5576 42.1266L19.2146 43.4657L19.8482 45.2533L22.6759 44.251ZM44.3338 22.6561L45.3277 19.8255L43.5499 19.2012L42.2156 20.5317L44.3338 22.6561ZM48.082 23.2848V20.2848H48.0742L48.0663 20.2849L48.082 23.2848ZM56.639 19.7817L54.5254 17.6527L54.52 17.6581L54.5146 17.6635L56.639 19.7817ZM59.0433 7.15598L56.2868 8.33995L56.2914 8.35057L56.296 8.36115L59.0433 7.15598ZM57.5174 6.86967L59.641 8.98872L59.6475 8.98215L59.6541 8.97554L57.5174 6.86967ZM50.965 13.4361L53.0468 15.5963L53.0679 15.5759L53.0886 15.5552L50.965 13.4361ZM49.4616 13.4174L51.5966 11.3099L51.5882 11.3014L51.5797 11.2929L49.4616 13.4174ZM46.6481 10.6123L48.7662 8.4878L48.7445 8.4662L48.7224 8.44504L46.6481 10.6123ZM46.6462 9.12648L48.726 11.2885L48.745 11.2702L48.7637 11.2516L46.6462 9.12648ZM48.1327 14.7404L50.2562 12.6212L50.2509 12.6159L48.1327 14.7404ZM52.2958 14.7573L50.1726 12.6378L50.1723 12.6381L52.2958 14.7573ZM57.7952 9.24811L60.6921 8.46849L59.3421 3.45207L55.672 7.12867L57.7952 9.24811ZM55.3101 18.4662L53.196 16.3377L53.1908 16.3429L53.1856 16.3481L55.3101 18.4662ZM44.4746 20.7062L43.3021 23.4675L43.3042 23.4685L44.4746 20.7062ZM43.4441 20.9045L41.3288 18.7772L41.326 18.78L43.4441 20.9045ZM20.9209 43.3603L23.0384 45.4855L23.0391 45.4848L20.9209 43.3603ZM20.7201 44.3839L23.4844 43.2182L23.4828 43.2144L20.7201 44.3839ZM18.5372 55.3517L16.4126 53.2336L16.404 53.2423L18.5372 55.3517ZM9.18073 57.7058L7.05576 55.5881L3.54053 59.1154L8.30196 60.5742L9.18073 57.7058ZM14.7008 52.1667L12.5758 50.049L12.5758 50.049L14.7008 52.1667ZM14.7552 48.0535L12.5887 50.1287L12.6109 50.1518L12.6336 50.1745L14.7552 48.0535ZM11.9286 45.1025L14.0951 43.0273L14.0747 43.0061L14.054 42.9853L11.9286 45.1025ZM7.76552 45.2185L9.88873 47.338L9.89587 47.3308L7.76552 45.2185ZM2.26611 50.7276L-0.630818 51.5073L0.719206 56.5237L4.3893 52.8471L2.26611 50.7276ZM4.75117 41.5096L6.86529 43.638L6.87049 43.6329L6.87567 43.6277L4.75117 41.5096ZM15.5867 39.2696L16.7667 36.5114L16.757 36.5073L15.5867 39.2696ZM16.6171 39.0712L14.499 36.9467L14.496 36.9497L16.6171 39.0712ZM39.1403 16.6155L37.0229 14.4903L37.0222 14.491L39.1403 16.6155ZM39.3412 15.5919L36.5769 16.7575L36.5785 16.7614L39.3412 15.5919ZM41.524 4.62223L43.6486 6.7403L43.6566 6.73228L41.524 4.62223ZM50.8749 2.26811L52.9934 4.39225L56.534 0.861052L51.752 -0.600826L50.8749 2.26811ZM45.3192 7.80907L47.4191 9.95161L47.4284 9.94245L47.4377 9.93321L45.3192 7.80907ZM55.3401 4.69866C55.7858 4.25234 56.1181 3.70507 56.3083 3.10258L50.5866 1.29636C50.6866 0.979837 50.861 0.692717 51.0946 0.458838L55.3401 4.69866ZM56.3083 3.10258C56.4985 2.50008 56.5408 1.86055 56.4314 1.23805L50.5219 2.27624C50.4645 1.94904 50.4867 1.61291 50.5866 1.29636L56.3083 3.10258ZM56.4314 1.23805C56.3221 0.615579 56.0644 0.0291418 55.6809 -0.472041L50.9159 3.17415C50.7148 2.91131 50.5794 2.60342 50.5219 2.27624L56.4314 1.23805ZM55.6809 -0.472041C55.2974 -0.973202 54.7995 -1.37433 54.2295 -1.64241L51.6759 3.78709C51.3779 3.64692 51.117 3.43696 50.9159 3.17415L55.6809 -0.472041ZM54.2306 -1.64185C51.5741 -2.89265 48.595 -3.29256 45.702 -2.78725L46.7345 3.12326C48.4108 2.83046 50.1367 3.06236 51.6747 3.78654L54.2306 -1.64185ZM45.702 -2.78725C42.8091 -2.28192 40.1426 -0.895812 38.0695 1.18227L42.3171 5.41989C43.5153 4.21888 45.0582 3.41606 46.7345 3.12326L45.702 -2.78725ZM38.0683 1.18343C34.0654 5.20022 32.6804 11.4359 34.5517 16.7221L40.2078 14.7199C39.1061 11.6076 39.9471 7.79809 42.3183 5.41873L38.0683 1.18343ZM35.2616 13.5965L13.6037 35.1896L17.84 39.4386L39.4979 17.8455L35.2616 13.5965ZM16.7166 34.4838C15.1886 33.9467 13.5792 33.6767 11.9594 33.6853L11.9916 39.6853C12.9233 39.6803 13.8487 39.8356 14.7271 40.1443L16.7166 34.4838ZM11.9755 33.6853C7.98267 33.6853 4.09236 35.2638 1.29415 38.0702L5.54294 42.3066C7.18556 40.6593 9.53417 39.6853 11.9755 39.6853V33.6853ZM1.30499 38.0593C-0.753931 40.1033 -2.1466 42.7208 -2.68906 45.5694L3.20501 46.6918C3.52062 45.0345 4.33123 43.5096 5.5321 42.3175L1.30499 38.0593ZM-2.68906 45.5694C-3.23154 48.418 -2.89816 51.3634 -1.73309 54.0193L3.76148 51.609C3.08322 50.0628 2.88942 48.349 3.20501 46.6918L-2.68906 45.5694ZM-1.74229 53.9981C-1.48706 54.5923 -1.08943 55.1138 -0.585316 55.517L3.16238 50.8314C3.42708 51.0431 3.63628 51.3173 3.77068 51.6302L-1.74229 53.9981ZM-0.585316 55.517C-0.0812486 55.9202 0.513879 56.1928 1.14733 56.3117L2.2538 50.4146C2.58562 50.4768 2.89772 50.6197 3.16238 50.8314L-0.585316 55.517ZM1.14733 56.3117C1.78076 56.4305 2.43381 56.3921 3.04906 56.1996L1.25753 50.4733C1.57993 50.3725 1.92201 50.3523 2.2538 50.4146L1.14733 56.3117ZM3.04906 56.1996C3.66435 56.0071 4.22351 55.6663 4.67681 55.2063L0.403477 50.9946C0.64165 50.7529 0.935092 50.5742 1.25753 50.4733L3.04906 56.1996ZM4.66373 55.2195L11.2161 48.6531L6.96892 44.415L0.416548 50.9814L4.66373 55.2195ZM11.2198 48.6493C10.9232 48.9477 10.5363 49.1245 10.117 49.16C9.71069 49.1945 9.02515 49.1008 8.44638 48.5148L12.7155 44.2988C11.7763 43.3478 10.5624 43.1007 9.60998 43.1815C8.64444 43.2634 7.69356 43.6862 6.9652 44.4187L11.2198 48.6493ZM8.41512 48.4827L11.2437 51.4337L15.5753 47.282L12.7467 44.3309L8.41512 48.4827ZM11.2817 51.4727C10.9047 51.0934 10.6912 50.5599 10.7067 50.0085C10.722 49.468 10.9506 49.0221 11.2409 48.7302L15.4954 52.9609C16.979 51.4689 17.2217 48.9377 15.5372 47.243L11.2817 51.4727ZM11.2433 48.7277L4.71537 55.2773L8.96502 59.5129L15.493 52.9633L11.2433 48.7277ZM4.71942 55.2733C4.27297 55.7195 3.94003 56.267 3.74948 56.8698L9.47052 58.6781C9.37027 58.9952 9.19524 59.2828 8.96097 59.517L4.71942 55.2733ZM3.74948 56.8698C3.55892 57.4727 3.51657 58.1127 3.62614 58.7356L9.53541 57.6962C9.59308 58.024 9.57078 58.3609 9.47052 58.6781L3.74948 56.8698ZM3.62614 58.7356C3.7357 59.3585 3.99382 59.9452 4.37801 60.4465L9.14018 56.7966C9.34195 57.0599 9.47775 57.3683 9.53541 57.6962L3.62614 58.7356ZM4.37801 60.4465C4.76217 60.9477 5.26095 61.3486 5.83171 61.6161L8.37797 56.1832C8.67683 56.3233 8.93845 56.5334 9.14018 56.7966L4.37801 60.4465ZM5.81625 61.6088C7.7369 62.5224 9.83717 62.9975 11.9644 63L11.9715 57C10.733 56.9985 9.51061 56.7219 8.39343 56.1905L5.81625 61.6088ZM11.968 63C15.741 63 19.3001 61.4819 21.9879 58.788L17.7405 54.5501C16.1415 56.1528 14.096 57 11.968 57V63ZM21.9886 58.7873C25.9924 54.772 27.3773 48.5354 25.5035 43.2488L19.8482 45.2533C20.9512 48.3651 20.1102 52.1737 17.7399 54.5508L21.9886 58.7873ZM24.7941 46.3754L46.452 24.7805L42.2156 20.5317L20.5576 42.1266L24.7941 46.3754ZM43.3399 25.4866C44.8682 26.0233 46.4777 26.2933 48.0977 26.2848L48.0663 20.2849C47.1336 20.2898 46.2072 20.1343 45.3277 19.8255L43.3399 25.4866ZM48.082 26.2848C52.0749 26.2848 55.9652 24.7063 58.7634 21.9L54.5146 17.6635C52.872 19.3109 50.5234 20.2848 48.082 20.2848V26.2848ZM58.7525 21.9108C60.8115 19.8669 62.2041 17.2494 62.7466 14.4008L56.8525 13.2784C56.5369 14.9357 55.7263 16.4605 54.5254 17.6527L58.7525 21.9108ZM62.7466 14.4008C63.2891 11.5521 62.9557 8.60672 61.7906 5.95082L56.296 8.36115C56.9743 9.90731 57.1681 11.6211 56.8525 13.2784L62.7466 14.4008ZM61.7998 5.97202C61.5446 5.37781 61.147 4.85634 60.6428 4.45313L56.8951 9.13873C56.6304 8.92701 56.4212 8.65286 56.2868 8.33995L61.7998 5.97202ZM60.6428 4.45313C60.1388 4.04996 59.5436 3.77731 58.9102 3.65845L57.8037 9.55555C57.4719 9.49329 57.1598 9.35041 56.8951 9.13873L60.6428 4.45313ZM58.9102 3.65845C58.2767 3.5396 57.6237 3.57805 57.0085 3.77053L58.8 9.49682C58.4776 9.59768 58.1355 9.61781 57.8037 9.55555L58.9102 3.65845ZM57.0085 3.77053C56.3932 3.96303 55.834 4.30388 55.3807 4.76381L59.6541 8.97554C59.4159 9.21719 59.1224 9.39594 58.8 9.49682L57.0085 3.77053ZM55.3938 4.75063L48.8414 11.3171L53.0886 15.5552L59.641 8.98872L55.3938 4.75063ZM48.8832 11.276C49.2501 10.9224 49.7403 10.7291 50.2468 10.7355L50.1721 16.735C51.2417 16.7483 52.275 16.34 53.0468 15.5963L48.8832 11.276ZM50.2468 10.7355C50.7533 10.7418 51.2386 10.9472 51.5966 11.3099L47.3265 15.5249C48.0796 16.2878 49.1025 16.7217 50.1721 16.735L50.2468 10.7355ZM51.5797 11.2929L48.7662 8.4878L44.5299 12.7368L47.3435 15.5419L51.5797 11.2929ZM48.7224 8.44504C48.9136 8.62803 49.0663 8.84811 49.1709 9.09238L43.6554 11.4543C43.8693 11.9538 44.1818 12.4044 44.5737 12.7796L48.7224 8.44504ZM49.1709 9.09238C49.2755 9.33667 49.3298 9.59983 49.3301 9.866L43.3301 9.87358C43.3308 10.4172 43.4415 10.9549 43.6554 11.4543L49.1709 9.09238ZM49.3301 9.866C49.3304 10.1322 49.2769 10.3955 49.1729 10.64L43.6514 8.29198C43.4388 8.79199 43.3294 9.32996 43.3301 9.87358L49.3301 9.866ZM49.1729 10.64C49.0689 10.8846 48.9167 11.105 48.726 11.2885L44.5664 6.96445C44.1754 7.34056 43.864 7.79199 43.6514 8.29198L49.1729 10.64ZM48.7637 11.2516L55.3349 4.70385L51.0998 0.453647L44.5287 7.00137L48.7637 11.2516ZM43.2011 14.0598L46.0146 16.8649L50.2509 12.6159L47.4373 9.81082L43.2011 14.0598ZM46.0093 16.8596C48.2908 19.1457 52.1194 19.181 54.4193 16.8764L50.1723 12.6381C50.2028 12.6075 50.2302 12.5939 50.241 12.5897C50.2493 12.5864 50.2447 12.5896 50.2295 12.5895C50.2144 12.5895 50.2065 12.5863 50.2091 12.5873C50.2141 12.5893 50.2335 12.5985 50.2562 12.6212L46.0093 16.8596ZM54.419 16.8767L59.9184 11.3676L55.672 7.12867L50.1726 12.6378L54.419 16.8767ZM54.8982 10.0277C55.1963 11.1353 55.1961 12.3015 54.8975 13.409L60.6907 14.9707C61.2648 12.8412 61.2653 10.5982 60.6921 8.46849L54.8982 10.0277ZM54.8975 13.409C54.599 14.5164 54.0124 15.5268 53.196 16.3377L57.4242 20.5947C58.9895 19.04 60.1166 17.1002 60.6907 14.9707L54.8975 13.409ZM53.1856 16.3481C51.8947 17.6428 50.0354 18.4173 48.0839 18.4173V24.4173C51.5793 24.4173 54.9829 23.0434 57.4346 20.5843L53.1856 16.3481ZM48.0839 18.4173C47.1801 18.4173 46.3662 18.2495 45.6449 17.9439L43.3042 23.4685C44.809 24.106 46.4239 24.4173 48.0839 24.4173V18.4173ZM45.6471 17.9448C44.9262 17.6387 44.1306 17.5544 43.3619 17.7024L44.496 23.5942C44.0945 23.6715 43.6789 23.6275 43.3021 23.4675L45.6471 17.9448ZM43.3619 17.7024C42.5931 17.8504 41.885 18.2242 41.3288 18.7772L45.5595 23.0318C45.2681 23.3216 44.8976 23.5169 44.496 23.5942L43.3619 17.7024ZM41.326 18.78L18.8028 41.2358L23.0391 45.4848L45.5623 23.029L41.326 18.78ZM18.8035 41.2351C18.2488 41.7878 17.871 42.494 17.72 43.2639L23.6077 44.4191C23.5282 44.8243 23.3295 45.1954 23.0384 45.4855L18.8035 41.2351ZM17.72 43.2639C17.5689 44.0339 17.6517 44.8312 17.9575 45.5534L23.4828 43.2144C23.6436 43.5942 23.6872 44.0138 23.6077 44.4191L17.72 43.2639ZM17.9558 45.5495C18.982 47.983 18.3383 51.302 16.4127 53.2336L20.6618 57.4697C24.2806 53.8397 25.4726 47.9332 23.4844 43.2182L17.9558 45.5495ZM16.404 53.2423C15.5953 54.0601 14.5762 54.6421 13.4571 54.9236L14.9211 60.7423C17.1014 60.1937 19.0902 59.0592 20.6704 57.461L16.404 53.2423ZM13.4571 54.9236C12.338 55.2052 11.1627 55.1753 10.0595 54.8374L8.30196 60.5742C10.4515 61.2327 12.7408 61.2908 14.9211 60.7423L13.4571 54.9236ZM11.3057 59.8234L16.8258 54.2844L12.5758 50.049L7.05576 55.5881L11.3057 59.8234ZM16.8257 54.2844C19.1066 51.9957 19.2287 48.2852 16.8769 45.9326L12.6336 50.1745C12.6268 50.1678 12.6127 50.1499 12.602 50.123C12.592 50.098 12.5888 50.0754 12.589 50.0583C12.5893 50.0414 12.5927 50.0309 12.5943 50.027C12.5965 50.0217 12.5946 50.0302 12.5758 50.049L16.8257 54.2844ZM16.9217 45.9784L14.0951 43.0273L9.76207 47.1776L12.5887 50.1287L16.9217 45.9784ZM14.054 42.9853C11.6751 40.5971 7.82351 40.8992 5.63518 43.1062L9.89587 47.3308C9.88755 47.3391 9.88629 47.3368 9.89959 47.3313C9.91477 47.3249 9.93492 47.3204 9.95335 47.3198C9.972 47.3193 9.96813 47.3232 9.94194 47.3136C9.91241 47.3027 9.85865 47.2754 9.80315 47.2197L14.054 42.9853ZM5.64233 43.099L0.142914 48.6082L4.3893 52.8471L9.88872 47.3379L5.64233 43.099ZM5.16304 49.948C4.86496 48.8404 4.86522 47.6742 5.16377 46.5668L-0.629412 45.005C-1.20349 47.1345 -1.20398 49.3775 -0.630818 51.5073L5.16304 49.948ZM5.16377 46.5668C5.46233 45.4593 6.0489 44.4489 6.86529 43.638L2.63705 39.3811C1.07174 40.9358 -0.0553407 42.8756 -0.629412 45.005L5.16377 46.5668ZM6.87567 43.6277C8.16655 42.3329 10.0259 41.5585 11.9774 41.5585V35.5585C8.48193 35.5585 5.07839 36.9323 2.62667 39.3914L6.87567 43.6277ZM11.9774 41.5585C12.8812 41.5585 13.6951 41.7263 14.4164 42.0319L16.757 36.5073C15.2523 35.8698 13.6374 35.5585 11.9774 35.5585V41.5585ZM14.4067 42.0278C15.1295 42.337 15.928 42.4226 16.6996 42.2741L15.5654 36.3823C15.9695 36.3045 16.3878 36.3493 16.7667 36.5114L14.4067 42.0278ZM16.6996 42.2741C17.4712 42.1256 18.1815 41.7494 18.7382 41.1928L14.496 36.9497C14.7885 36.6573 15.1612 36.4601 15.5654 36.3823L16.6996 42.2741ZM18.7353 41.1957L41.2585 18.74L37.0222 14.491L14.499 36.9467L18.7353 41.1957ZM41.2578 18.7407C41.8125 18.188 42.1903 17.4817 42.3413 16.7118L36.4536 15.5566C36.5331 15.1514 36.7318 14.7803 37.0229 14.4903L41.2578 18.7407ZM42.3413 16.7118C42.4924 15.9419 42.4096 15.1446 42.1038 14.4223L36.5785 16.7614C36.4177 16.3815 36.3741 15.9619 36.4536 15.5566L42.3413 16.7118ZM42.1055 14.4262C41.0792 11.9926 41.7231 8.67169 43.6486 6.74028L39.3995 2.50417C35.7805 6.13431 34.5887 12.0427 36.5769 16.7575L42.1055 14.4262ZM43.6566 6.73228C44.4651 5.91516 45.4836 5.33367 46.6021 5.05211L45.1372 -0.766339C42.9586 -0.217848 40.9712 0.915659 39.3915 2.51217L43.6566 6.73228ZM46.6021 5.05211C47.7205 4.77053 48.8951 4.79994 49.9979 5.13705L51.752 -0.600826C49.6035 -1.2576 47.3159 -1.31482 45.1372 -0.766339L46.6021 5.05211ZM48.7564 0.143972L43.2007 5.68493L47.4377 9.93321L52.9934 4.39225L48.7564 0.143972ZM43.2193 5.66653C42.6602 6.21456 42.2155 6.86861 41.9119 7.59079L47.4428 9.9165C47.437 9.93025 47.4288 9.9421 47.4191 9.95161L43.2193 5.66653ZM41.9119 7.59079C41.6082 8.31299 41.4517 9.08856 41.4517 9.87219H47.4517C47.4517 9.88766 47.4486 9.90275 47.4428 9.9165L41.9119 7.59079ZM41.4517 9.87219C41.4517 10.6558 41.6082 11.4314 41.9119 12.1536L47.4428 9.82788C47.4486 9.84164 47.4517 9.85673 47.4517 9.87219H41.4517ZM41.9119 12.1536C42.2155 12.8758 42.6601 13.5298 43.2193 14.0779L47.4191 9.79278C47.4288 9.80229 47.437 9.81415 47.4428 9.82788L41.9119 12.1536Z" fill="#F50C1E" mask="url(#path-1-inside-1_254_502)"/>
<mask id="path-3-inside-2_254_502" fill="white">
<path d="M54.8241 57.3951C54.6153 57.5952 54.3368 57.7067 54.0472 57.706C53.7576 57.7053 53.4796 57.5925 53.2719 57.3913L34.4462 38.6782C34.2668 38.5182 34.0327 38.433 33.7922 38.4399C33.5516 38.4468 33.3229 38.5455 33.1531 38.7155C32.9832 38.8855 32.8853 39.114 32.8793 39.3539C32.8734 39.5938 32.9599 39.8268 33.1211 40.0049L51.9449 58.7143C52.5079 59.2776 53.255 59.5882 54.0508 59.5882C54.8466 59.5882 55.5936 59.2776 56.168 58.7012L58.8501 55.9074C59.1243 55.6376 59.342 55.3161 59.4905 54.9617C59.639 54.6073 59.7154 54.227 59.7152 53.8429C59.7151 53.4588 59.6383 53.0786 59.4895 52.7243C59.3406 52.37 59.1227 52.0488 58.8482 51.7793L40.0789 33.0661C39.9019 32.8957 39.6648 32.8014 39.4188 32.8035C39.1727 32.8056 38.9373 32.904 38.7633 33.0775C38.5893 33.251 38.4906 33.4857 38.4885 33.731C38.4864 33.9763 38.5809 34.2127 38.7519 34.3891L57.5193 53.1004C57.9492 53.5308 57.9492 54.1558 57.5062 54.6012L54.8241 57.3951ZM10.9864 5.93208L5.35563 0.318137C5.17964 0.142728 4.94098 0.0441895 4.69213 0.0441895C4.44328 0.0441895 4.20462 0.142728 4.02864 0.318137L0.27477 4.06076C0.098835 4.23622 0 4.47417 0 4.72227C0 4.97038 0.098835 5.20832 0.27477 5.38378L5.90557 10.9977C6.08179 11.1725 6.32013 11.2707 6.56868 11.2711C6.81722 11.2714 7.05584 11.1738 7.23256 10.9996L8.44506 9.78885L22.7961 24.0969C22.8825 24.1864 22.986 24.2578 23.1004 24.307C23.2148 24.3562 23.3379 24.3822 23.4625 24.3834C23.5871 24.3847 23.7108 24.3612 23.8261 24.3143C23.9415 24.2674 24.0464 24.1981 24.1347 24.1104C24.2229 24.0226 24.2927 23.9183 24.3401 23.8034C24.3874 23.6884 24.4113 23.5653 24.4104 23.441C24.4095 23.3168 24.3838 23.194 24.3348 23.0798C24.2858 22.9656 24.2145 22.8622 24.125 22.7758L9.77205 8.46583L10.9846 7.25697C11.0721 7.17018 11.1416 7.06702 11.189 6.95342C11.2365 6.83981 11.261 6.71798 11.2612 6.59491C11.2614 6.47184 11.2372 6.34994 11.19 6.2362C11.1429 6.12246 11.0737 6.01911 10.9864 5.93208ZM6.56813 9.01413L2.26432 4.72321L4.69119 2.3036L8.995 6.59452L6.56813 9.01413Z"/>
</mask>
<path d="M53.2719 57.3913L51.1569 59.519L51.1708 59.5329L51.185 59.5465L53.2719 57.3913ZM34.4462 38.6782L36.5612 36.5505L36.5034 36.4931L36.4427 36.4389L34.4462 38.6782ZM33.1211 40.0049L30.8963 42.0175L30.9498 42.0766L31.0063 42.1327L33.1211 40.0049ZM51.9449 58.7143L54.0665 56.5934L54.0597 56.5866L51.9449 58.7143ZM56.168 58.7012L58.293 60.8188L58.3127 60.799L58.3321 60.7788L56.168 58.7012ZM58.8501 55.9074L56.746 53.7689L56.7155 53.7989L56.6859 53.8298L58.8501 55.9074ZM58.8482 51.7793L56.7301 53.9037L56.738 53.9117L56.7461 53.9196L58.8482 51.7793ZM40.0789 33.0661L42.197 30.9416L42.1786 30.9232L42.1598 30.9051L40.0789 33.0661ZM38.7519 34.3891L36.5972 36.4765L36.6153 36.4952L36.6338 36.5136L38.7519 34.3891ZM57.5193 53.1004L59.6421 50.9805L59.6375 50.9759L57.5193 53.1004ZM57.5062 54.6012L55.3791 52.4856L55.3604 52.5045L55.3421 52.5236L57.5062 54.6012ZM5.35563 0.318137L7.47377 -1.80636L7.47344 -1.80668L5.35563 0.318137ZM4.02864 0.318137L1.91082 -1.80668L1.9105 -1.80636L4.02864 0.318137ZM0.27477 4.06076L-1.84337 1.93626L-1.84369 1.93658L0.27477 4.06076ZM0.27477 5.38378L-1.84369 7.50796L-1.84337 7.50828L0.27477 5.38378ZM5.90557 10.9977L3.78742 13.1222L3.7932 13.128L5.90557 10.9977ZM7.23256 10.9996L9.3389 13.1358L9.34564 13.1291L9.35234 13.1225L7.23256 10.9996ZM8.44506 9.78885L10.5632 7.66435L8.44342 5.55093L6.32528 7.66599L8.44506 9.78885ZM22.7961 24.0969L24.9537 22.0125L24.9341 21.9923L24.9142 21.9724L22.7961 24.0969ZM24.125 22.7758L22.0068 24.9003L22.0237 24.9171L22.0409 24.9337L24.125 22.7758ZM9.77205 8.46583L7.65391 6.34134L5.52303 8.46583L7.65391 10.5903L9.77205 8.46583ZM10.9846 7.25697L8.8721 5.1268L8.86641 5.13247L10.9846 7.25697ZM6.56813 9.01413L4.44999 11.1386L6.56813 13.2504L8.68626 11.1386L6.56813 9.01413ZM2.26432 4.72321L0.146182 2.59871L-1.9847 4.72321L0.146182 6.84771L2.26432 4.72321ZM4.69119 2.3036L6.80933 0.179102L4.69119 -1.93269L2.57306 0.179102L4.69119 2.3036ZM8.995 6.59452L11.1131 8.71902L13.244 6.59452L11.1131 4.47002L8.995 6.59452ZM52.7477 55.2298C53.1002 54.8917 53.5689 54.7048 54.0544 54.706L54.04 60.706C55.1047 60.7086 56.1305 60.2987 56.9005 59.5604L52.7477 55.2298ZM54.0544 54.706C54.54 54.7072 55.0078 54.8963 55.3587 55.2361L51.185 59.5465C51.9514 60.2887 52.9752 60.7034 54.04 60.706L54.0544 54.706ZM55.3868 55.2636L36.5612 36.5505L32.3313 40.8059L51.1569 59.519L55.3868 55.2636ZM36.4427 36.4389C35.6905 35.7684 34.7109 35.4121 33.7056 35.4412L33.8787 41.4387C33.3546 41.4538 32.8431 41.2681 32.4498 40.9174L36.4427 36.4389ZM33.7056 35.4412C32.7003 35.4702 31.7427 35.8824 31.0304 36.5955L35.2757 40.8355C34.9031 41.2086 34.4029 41.4235 33.8787 41.4387L33.7056 35.4412ZM31.0304 36.5955C30.3179 37.3089 29.9053 38.2694 29.8803 39.2796L35.8784 39.4282C35.8653 39.9587 35.6486 40.4621 35.2757 40.8355L31.0304 36.5955ZM29.8803 39.2796C29.8552 40.2897 30.2197 41.2696 30.8963 42.0175L35.3459 37.9924C35.7001 38.384 35.8916 38.8978 35.8784 39.4282L29.8803 39.2796ZM31.0063 42.1327L49.83 60.8421L54.0597 56.5866L35.2359 37.8772L31.0063 42.1327ZM49.8232 60.8353C50.9466 61.9591 52.4558 62.5882 54.0508 62.5882V56.5882C54.0473 56.5882 54.0474 56.5879 54.0502 56.5885C54.053 56.589 54.0568 56.5901 54.0609 56.5918C54.0651 56.5936 54.0681 56.5953 54.0697 56.5964C54.0713 56.5975 54.0701 56.5969 54.0665 56.5934L49.8232 60.8353ZM54.0508 62.5882C55.6547 62.5882 57.1633 61.9525 58.293 60.8188L54.0429 56.5836C54.034 56.5926 54.0289 56.5961 54.0284 56.5964C54.028 56.5967 54.0303 56.5951 54.0351 56.5931C54.0399 56.5911 54.0448 56.5896 54.049 56.5888C54.0532 56.588 54.0542 56.5882 54.0508 56.5882V62.5882ZM58.3321 60.7788L61.0142 57.985L56.6859 53.8298L54.0038 56.6236L58.3321 60.7788ZM60.9542 58.0458C61.5117 57.4972 61.9549 56.8431 62.2574 56.1212L56.7236 53.8022C56.7291 53.7892 56.7369 53.7779 56.746 53.7689L60.9542 58.0458ZM62.2574 56.1212C62.5599 55.3994 62.7156 54.6244 62.7152 53.8416L56.7152 53.8443C56.7152 53.8296 56.7182 53.8153 56.7236 53.8022L62.2574 56.1212ZM62.7152 53.8416C62.7149 53.0587 62.5585 52.2839 62.2553 51.5623L56.7237 53.8863C56.7182 53.8733 56.7153 53.859 56.7152 53.8443L62.7152 53.8416ZM62.2553 51.5623C61.9521 50.8407 61.5084 50.187 60.9504 49.6389L56.7461 53.9196C56.7369 53.9106 56.7291 53.8994 56.7237 53.8863L62.2553 51.5623ZM60.9664 49.6548L42.197 30.9416L37.9608 35.1906L56.7301 53.9037L60.9664 49.6548ZM42.1598 30.9051C41.4164 30.1893 40.4226 29.7947 39.3928 29.8036L39.4448 35.8034C38.9071 35.808 38.3874 35.6021 37.998 35.2271L42.1598 30.9051ZM39.3928 29.8036C38.363 29.8125 37.3761 30.2243 36.6452 30.953L40.8815 35.202C40.4986 35.5838 39.9824 35.7987 39.4448 35.8034L39.3928 29.8036ZM36.6452 30.953C35.914 31.682 35.4976 32.6701 35.4886 33.7048L41.4884 33.7571C41.4836 34.3013 41.2647 34.82 40.8815 35.202L36.6452 30.953ZM35.4886 33.7048C35.4796 34.7396 35.8787 35.7348 36.5972 36.4765L40.9066 32.3018C41.2832 32.6905 41.4931 33.213 41.4884 33.7571L35.4886 33.7048ZM36.6338 36.5136L55.4012 55.2249L59.6375 50.9759L40.87 32.2646L36.6338 36.5136ZM55.3966 55.2203C55.0831 54.9064 54.8365 54.4143 54.8401 53.8266C54.8437 53.241 55.0936 52.7727 55.3791 52.4856L59.6333 56.7167C61.213 55.1284 61.2685 52.6091 59.6421 50.9805L55.3966 55.2203ZM55.3421 52.5236L52.6599 55.3175L56.9882 59.4727L59.6704 56.6788L55.3421 52.5236ZM13.1046 3.80758L7.47377 -1.80636L3.23749 2.44264L8.86829 8.05657L13.1046 3.80758ZM7.47344 -1.80668C6.73419 -2.5435 5.73357 -2.95581 4.69213 -2.95581V3.04419C4.14839 3.04419 3.62509 2.82896 3.23781 2.44296L7.47344 -1.80668ZM4.69213 -2.95581C3.65069 -2.95581 2.65008 -2.5435 1.91082 -1.80668L6.14645 2.44296C5.75917 2.82896 5.23588 3.04419 4.69213 3.04419V-2.95581ZM1.9105 -1.80636L-1.84337 1.93626L2.39291 6.18526L6.14677 2.44264L1.9105 -1.80636ZM-1.84369 1.93658C-2.58303 2.67393 -3 3.67577 -3 4.72227H3C3 5.27257 2.7807 5.79852 2.39323 6.18494L-1.84369 1.93658ZM-3 4.72227C-3 5.76878 -2.58303 6.77061 -1.84369 7.50796L2.39323 3.2596C2.7807 3.64603 3 4.17197 3 4.72227H-3ZM-1.84337 7.50828L3.78743 13.1222L8.02371 8.87322L2.39291 3.25928L-1.84337 7.50828ZM3.7932 13.128C4.53119 13.8598 5.52742 14.2696 6.56445 14.2711L6.57291 8.27107C7.11285 8.27183 7.6324 8.48518 8.01794 8.86749L3.7932 13.128ZM6.56445 14.2711C7.60148 14.2725 8.59885 13.8655 9.3389 13.1358L5.12622 8.86339C5.51283 8.48219 6.03297 8.27031 6.57291 8.27107L6.56445 14.2711ZM9.35234 13.1225L10.5648 11.9117L6.32528 7.66599L5.11278 8.87673L9.35234 13.1225ZM6.32692 11.9134L20.678 26.2214L24.9142 21.9724L10.5632 7.66435L6.32692 11.9134ZM20.6385 26.1814C21.0017 26.5573 21.436 26.8569 21.9156 27.0631L24.2853 21.5509C24.536 21.6587 24.7633 21.8155 24.9537 22.0125L20.6385 26.1814ZM21.9156 27.0631C22.3951 27.2693 22.9107 27.378 23.4324 27.3833L23.4927 21.3836C23.7651 21.3863 24.0345 21.4431 24.2853 21.5509L21.9156 27.0631ZM23.4324 27.3833C23.9541 27.3885 24.4718 27.2901 24.9553 27.0937L22.6969 21.5349C22.9497 21.4322 23.2202 21.3808 23.4927 21.3836L23.4324 27.3833ZM24.9553 27.0937C25.439 26.8972 25.8791 26.6064 26.2498 26.2379L22.0195 21.9829C22.2138 21.7898 22.4441 21.6376 22.6969 21.5349L24.9553 27.0937ZM26.2498 26.2379C26.6205 25.8693 26.9144 25.4303 27.1138 24.9462L21.5663 22.6605C21.671 22.4063 21.8253 22.176 22.0195 21.9829L26.2498 26.2379ZM27.1138 24.9462C27.3133 24.4622 27.4142 23.9431 27.4104 23.4192L21.4105 23.4628C21.4085 23.1875 21.4616 22.9147 21.5663 22.6605L27.1138 24.9462ZM27.4104 23.4192C27.4066 22.8954 27.2981 22.3778 27.0917 21.8967L21.5779 24.2628C21.4695 24.0102 21.4125 23.7382 21.4105 23.4628L27.4104 23.4192ZM27.0917 21.8967C26.8853 21.4156 26.585 20.981 26.209 20.6178L22.0409 24.9337C21.8439 24.7434 21.6863 24.5155 21.5779 24.2628L27.0917 21.8967ZM26.2431 20.6513L11.8902 6.34134L7.65391 10.5903L22.0068 24.9003L26.2431 20.6513ZM11.8902 10.5903L13.1027 9.38146L8.86641 5.13247L7.65391 6.34134L11.8902 10.5903ZM13.097 9.38713C13.4647 9.02247 13.7571 8.58859 13.9571 8.11008L8.42097 5.79675C8.52598 5.54546 8.67943 5.31788 8.87211 5.1268L13.097 9.38713ZM13.9571 8.11008C14.157 7.63155 14.2605 7.11808 14.2612 6.59916L8.2612 6.59066C8.26159 6.31788 8.31596 6.04807 8.42097 5.79675L13.9571 8.11008ZM14.2612 6.59916C14.2619 6.08024 14.16 5.56647 13.9614 5.08738L8.41873 7.38503C8.31442 7.13341 8.26082 6.86344 8.2612 6.59066L14.2612 6.59916ZM13.9614 5.08738C13.7628 4.6083 13.4716 4.17359 13.1049 3.80789L8.86798 8.05626C8.67584 7.86464 8.52302 7.63662 8.41873 7.38503L13.9614 5.08738ZM8.68626 6.88963L4.38246 2.59871L0.146182 6.84771L4.44999 11.1386L8.68626 6.88963ZM4.38246 6.84771L6.80933 4.4281L2.57306 0.179102L0.146182 2.59871L4.38246 6.84771ZM2.57306 4.4281L6.87686 8.71902L11.1131 4.47002L6.80933 0.179102L2.57306 4.4281ZM6.87686 4.47002L4.44999 6.88963L8.68626 11.1386L11.1131 8.71902L6.87686 4.47002Z" fill="#F50C1E" mask="url(#path-3-inside-2_254_502)"/>
</svg>
