<svg width="82" height="57" viewBox="0 0 82 57" fill="none" xmlns="http://www.w3.org/2000/svg">
<path d="M27.2871 18.4731C26.3071 18.8751 27.5471 19.5771 28.2331 19.5811C28.5452 19.6227 28.8628 19.5876 29.1584 19.4789C29.4539 19.3702 29.7185 19.191 29.9293 18.957C30.14 18.7231 30.2906 18.4412 30.3679 18.136C30.4452 17.8307 30.447 17.5112 30.3731 17.2051C29.7591 15.4751 26.8591 14.7791 24.5991 15.3251C21.3411 16.1151 20.0851 18.805 21.3231 20.923C22.9471 23.707 27.8211 24.7551 31.6531 23.5851C36.4211 22.1311 38.1851 18.0611 36.0531 14.8711C33.4931 11.0451 26.6331 9.64705 21.2751 11.4351C15.0151 13.5251 12.7451 18.9691 15.7651 23.2071C19.2291 28.0631 28.0651 29.811 34.9191 27.409C42.6591 24.699 45.4291 17.8891 41.5271 12.6231C37.1771 6.74505 26.3851 4.65105 18.0511 7.65905C8.84707 10.9811 5.58108 19.1411 10.3511 25.4311C15.5771 32.3191 28.3111 34.7551 38.1111 31.1471C48.7651 27.2211 52.5251 17.7191 46.8911 10.4191C40.7971 2.52705 26.1351 -0.252949 14.8851 3.95505C2.78508 8.47905 -1.46492 19.3151 5.02908 27.6171C9.15908 32.8991 17.0171 36.4431 25.6211 37.0331" stroke="#F50C1E" stroke-width="3" stroke-linecap="round" stroke-linejoin="round"/>
<path d="M49.4832 36.8071V17.1411M25.6212 37.0331H80.0012V55.1191H25.4812C12.2452 55.1191 2.01123 46.2991 2.01123 34.7731V18.9491L25.6212 37.0331ZM12.1832 51.2751V46.7551V51.2751ZM18.9652 53.9891V44.9451V53.9891ZM25.7472 55.1191V50.5991V55.1191ZM32.5292 55.1191V46.0751V55.1191ZM39.3092 55.1191V50.5991V55.1191ZM46.0932 55.1191V46.0751V55.1191ZM52.8732 55.1191V50.5991V55.1191ZM66.4372 55.1191V50.5991V55.1191ZM59.6572 55.1191V46.0751V55.1191ZM73.2192 55.1191V46.0751V55.1191Z" stroke="#F50C1E" stroke-width="3" stroke-linecap="round" stroke-linejoin="round"/>
</svg>
