<svg width="94" height="56" viewBox="0 0 94 56" fill="none" xmlns="http://www.w3.org/2000/svg">
<path d="M32 54C34.1217 54 36.1566 53.1571 37.6569 51.6569C39.1571 50.1566 40 48.1217 40 46C40 43.8783 39.1571 41.8434 37.6569 40.3431C36.1566 38.8429 34.1217 38 32 38C29.8783 38 27.8434 38.8429 26.3431 40.3431C24.8429 41.8434 24 43.8783 24 46C24 48.1217 24.8429 50.1566 26.3431 51.6569C27.8434 53.1571 29.8783 54 32 54V54ZM72 54C74.1217 54 76.1566 53.1571 77.6569 51.6569C79.1571 50.1566 80 48.1217 80 46C80 43.8783 79.1571 41.8434 77.6569 40.3431C76.1566 38.8429 74.1217 38 72 38C69.8783 38 67.8434 38.8429 66.3431 40.3431C64.8429 41.8434 64 43.8783 64 46C64 48.1217 64.8429 50.1566 66.3431 51.6569C67.8434 53.1571 69.8783 54 72 54V54Z" stroke="#F50C1E" stroke-width="3" stroke-miterlimit="1.5" stroke-linecap="round" stroke-linejoin="round"/>
<path d="M22.6 46H14.4C14.0848 46 13.7727 45.9379 13.4816 45.8173C13.1904 45.6967 12.9258 45.5199 12.7029 45.2971C12.4801 45.0742 12.3033 44.8096 12.1827 44.5184C12.0621 44.2273 12 43.9152 12 43.6V24M40.2 46H60V4.4C60 3.76348 59.7471 3.15303 59.2971 2.70294C58.847 2.25286 58.2365 2 57.6 2H4L40.2 46Z" stroke="#F50C1E" stroke-width="3" stroke-linecap="round"/>
<path d="M8 14H24" stroke="#F50C1E" stroke-width="3" stroke-linecap="round" stroke-linejoin="round"/>
<path d="M60 46H64M60 14H82.44C82.9039 14.0001 83.3578 14.1347 83.7469 14.3874C84.1359 14.6401 84.4433 15.0002 84.632 15.424L91.792 31.536C91.9284 31.8419 91.9993 32.173 92 32.508V43.6C92 43.9152 91.9379 44.2273 91.8173 44.5184C91.6967 44.8096 91.5199 45.0742 91.2971 45.2971C91.0742 45.5199 90.8096 45.6967 90.5184 45.8173C90.2273 45.9379 89.9152 46 89.6 46H82L60 14Z" stroke="#F50C1E" stroke-width="3" stroke-linecap="round"/>
</svg>
