<svg width="28" height="28" viewBox="0 0 28 28" fill="none" xmlns="http://www.w3.org/2000/svg">
<path fill-rule="evenodd" clip-rule="evenodd" d="M24.5031 3.63356C23.3961 2.47835 22.079 1.56235 20.6281 0.938641C19.1771 0.314929 17.6213 -0.0040989 16.0506 3.97564e-05C9.46422 3.97564e-05 4.1025 5.55727 4.09983 12.3882C4.09983 14.5714 4.64958 16.7021 5.69451 18.5817L4 25L10.3348 23.2764C12.087 24.2653 14.0502 24.7838 16.0452 24.7847H16.0506C22.6356 24.7847 27.9973 19.2275 28 12.3965C28.0045 10.7688 27.6978 9.15629 27.0976 7.65219C26.4974 6.14809 25.6156 4.78223 24.5031 3.63356ZM16.0506 22.694H16.0466C14.2676 22.6942 12.5213 22.198 10.991 21.2575L10.6289 21.0339L6.86988 22.0565L7.8722 18.2574L7.6366 17.8682C6.64197 16.2266 6.11545 14.3268 6.1178 12.3882C6.12046 6.71095 10.5757 2.09211 16.0546 2.09211C17.3594 2.0891 18.6518 2.35442 19.8571 2.8727C21.0623 3.39099 22.1565 4.15195 23.0762 5.11154C24.0008 6.06655 24.7337 7.20208 25.2324 8.4525C25.7312 9.70291 25.9859 11.0434 25.982 12.3965C25.9793 18.0738 21.5241 22.694 16.0506 22.694ZM21.4988 14.9812C21.1993 14.8253 19.7324 14.0774 19.4582 13.9739C19.1853 13.8704 18.987 13.8193 18.7873 14.1284C18.5877 14.4375 18.0153 15.1344 17.8409 15.3414C17.6665 15.5484 17.4922 15.5733 17.194 15.4187C16.8958 15.2641 15.9334 14.9371 14.7927 13.8828C13.9048 13.0617 13.3058 12.0488 13.1314 11.7383C12.9571 11.4278 13.1128 11.2608 13.2632 11.1062C13.3977 10.9682 13.5614 10.7447 13.7105 10.5639C13.8595 10.3831 13.9088 10.2548 14.0086 10.0478C14.1085 9.84077 14.0592 9.65999 13.9833 9.50543C13.9088 9.34949 13.3111 7.82598 13.0622 7.20637C12.8213 6.60607 12.575 6.68611 12.3913 6.67783C12.2011 6.66976 12.0107 6.66608 11.8203 6.66679C11.6689 6.67079 11.5199 6.70717 11.3827 6.77367C11.2455 6.84016 11.123 6.93532 11.0229 7.05319C10.7487 7.36368 9.97802 8.11164 9.97802 9.63515C9.97802 11.1587 11.0482 12.6311 11.1973 12.8381C11.3464 13.0451 13.3031 16.1708 16.2981 17.5122C17.0116 17.8309 17.568 18.0214 18.0006 18.1649C18.7154 18.4009 19.3664 18.3664 19.8815 18.2877C20.4552 18.1994 21.6479 17.5398 21.8968 16.8166C22.1457 16.0935 22.1457 15.4739 22.0712 15.3442C21.9966 15.2145 21.7956 15.1358 21.4988 14.9812Z" fill="#F8F8F8"/>
</svg>
